<svg width="1302" height="1302" viewBox="0 0 1302 1302" fill="none" xmlns="http://www.w3.org/2000/svg">
<path d="M601.481 831.412C619.885 806.786 631.722 780.405 631.722 726.229C596.588 795.18 511.544 790.255 483.101 726.229C476.173 710.634 471.39 687.65 483.101 661.383C507.988 605.567 623.231 498.858 650 473.412C676.769 498.858 792.012 605.567 816.899 661.383C828.61 687.65 823.827 710.634 816.899 726.229C788.456 790.255 703.412 795.18 668.278 726.229C668.278 780.405 680.115 806.787 698.519 831.412C679.683 829.403 664.655 828.377 650.002 828.335C635.347 828.377 620.319 829.403 601.481 831.412Z" fill="black"/>
<path d="M276 1152.82H690.706V1064.35H364.471L364.471 152L276 152L276 1152.82Z" fill="black"/>
<path d="M1028 152H613.294V240.471H939.529V1152.82H1028L1028 152Z" fill="black"/>
</svg>
